<?xml version="1.0" standalone="no"?>
<!DOCTYPE svg PUBLIC "-//W3C//DTD SVG 20010904//EN"
 "http://www.w3.org/TR/2001/REC-SVG-20010904/DTD/svg10.dtd">
<svg version="1.0" xmlns="http://www.w3.org/2000/svg"
 width="500.000000pt" height="500.000000pt" viewBox="0 0 500.000000 500.000000"
 preserveAspectRatio="xMidYMid meet">
<metadata>
Created by potrace 1.14, written by Peter Selinger 2001-2017
</metadata>
<g transform="translate(0.000000,500.000000) scale(0.100000,-0.100000)"
fill="#000000" stroke="none">
<path d="M2359 4996 c-2 -2 -29 -7 -59 -10 -339 -40 -690 -251 -917 -551 -93
-122 -205 -368 -237 -521 -7 -30 -12 -33 -79 -49 -243 -59 -464 -183 -642
-360 -117 -117 -124 -125 -193 -230 -100 -151 -173 -330 -208 -512 -19 -93
-25 -328 -12 -439 23 -205 113 -439 238 -619 19 -27 39 -55 45 -62 5 -6 28
-33 50 -59 151 -182 385 -336 629 -415 52 -16 108 -32 123 -33 25 -3 29 -8 41
-62 64 -296 176 -508 366 -700 62 -62 187 -164 202 -164 4 0 15 -6 23 -14 27
-24 192 -103 271 -129 147 -49 223 -60 435 -63 194 -3 247 2 425 39 123 26
356 138 480 231 72 54 218 195 270 262 110 140 209 350 260 550 10 42 19 48
84 61 94 18 293 106 406 180 336 221 547 543 625 953 11 60 14 331 4 405 -30
218 -125 460 -248 630 -59 81 -62 86 -151 176 -180 182 -407 313 -643 369 -44
11 -81 21 -84 24 -2 2 -11 35 -19 73 -59 284 -218 554 -440 744 -57 48 -178
127 -259 167 -80 40 -239 95 -305 106 -19 3 -46 9 -60 12 -26 7 -415 16 -421
10z m365 -621 c206 -44 387 -192 477 -390 16 -36 29 -68 29 -73 0 -4 -326 -8
-725 -8 -399 0 -725 3 -725 6 0 12 62 124 88 158 111 150 258 250 436 298 102
27 314 32 420 9z m1011 -1088 c165 -31 300 -102 420 -222 247 -245 306 -596
154 -912 -75 -156 -203 -285 -359 -361 -36 -17 -71 -32 -78 -34 -8 -2 -23 27
-41 82 -83 255 -255 496 -486 678 -71 56 -208 132 -317 175 -153 62 -313 94
-503 102 -130 5 -159 9 -245 37 -196 62 -369 207 -464 388 -20 37 -34 69 -32
71 7 6 1917 2 1951 -4z m-2577 -34 c-5 -18 48 -166 92 -258 163 -339 445 -598
791 -725 74 -28 171 -54 237 -64 87 -14 118 -17 223 -21 64 -2 145 -11 181
-19 306 -71 532 -310 596 -630 15 -73 8 -261 -12 -336 -19 -72 -92 -229 -128
-274 -102 -131 -226 -222 -368 -272 -101 -35 -113 -37 -290 -40 -186 -3 -254
9 -370 66 -84 41 -123 69 -185 133 -68 70 -106 128 -142 217 -47 114 -55 172
-55 399 -1 214 -6 249 -46 270 -9 5 -109 11 -222 14 -151 3 -222 9 -270 22
-341 92 -575 386 -586 740 -5 171 40 336 129 470 56 84 170 193 252 240 96 56
179 88 173 68z"/>
</g>
</svg>
