<svg width="20" height="20" viewBox="0 0 20 20" fill="none" xmlns="http://www.w3.org/2000/svg">
<path d="M10 8.12501C9.91667 8.12501 9.84167 8.10834 9.75833 8.07501C9.525 7.98334 9.375 7.75001 9.375 7.50001V1.66667C9.375 1.32501 9.65833 1.04167 10 1.04167C10.3417 1.04167 10.625 1.32501 10.625 1.66667V5.99167L11.225 5.39167C11.4667 5.15001 11.8667 5.15001 12.1083 5.39167C12.35 5.63334 12.35 6.03334 12.1083 6.27501L10.4417 7.94167C10.325 8.05834 10.1667 8.12501 10 8.12501Z" fill="#A0A0A0"/>
<path d="M10.0005 8.125C9.84219 8.125 9.68385 8.06667 9.55885 7.94167L7.89219 6.275C7.65052 6.03334 7.65052 5.63334 7.89219 5.39167C8.13385 5.15 8.53385 5.15 8.77552 5.39167L10.4422 7.05834C10.6839 7.3 10.6839 7.7 10.4422 7.94167C10.3172 8.06667 10.1589 8.125 10.0005 8.125Z" fill="#A0A0A0"/>
<path d="M11.4671 14.7917H8.52539C7.65039 14.7917 6.86706 14.3083 6.47539 13.525L5.50039 11.575C5.46706 11.5 5.39206 11.4583 5.31706 11.4583H1.65039C1.30872 11.4583 1.02539 11.175 1.02539 10.8333C1.02539 10.4917 1.30872 10.2083 1.65039 10.2083H5.32539C5.88372 10.2083 6.38372 10.5167 6.63372 11.0167L7.60872 12.9667C7.78372 13.325 8.14206 13.5417 8.54206 13.5417H11.4837C11.8837 13.5417 12.2421 13.325 12.4171 12.9667L13.3921 11.0167C13.6421 10.5167 14.1421 10.2083 14.7004 10.2083H18.3337C18.6754 10.2083 18.9587 10.4917 18.9587 10.8333C18.9587 11.175 18.6754 11.4583 18.3337 11.4583H14.7004C14.6171 11.4583 14.5504 11.5 14.5171 11.575L13.5421 13.525C13.1254 14.3083 12.3421 14.7917 11.4671 14.7917Z" fill="#A0A0A0"/>
<path d="M12.4993 18.9583H7.49935C2.97435 18.9583 1.04102 17.025 1.04102 12.5V9.16666C1.04102 5.25833 2.49102 3.3 5.74102 2.825C6.09102 2.775 6.39935 3.00833 6.44935 3.35C6.49935 3.69166 6.26602 4.00833 5.92435 4.05833C3.30768 4.44166 2.29102 5.875 2.29102 9.16666V12.5C2.29102 16.3417 3.65768 17.7083 7.49935 17.7083H12.4993C16.341 17.7083 17.7077 16.3417 17.7077 12.5V9.16666C17.7077 5.875 16.691 4.44166 14.0743 4.05833C13.7327 4.00833 13.4993 3.69166 13.5493 3.35C13.5993 3.00833 13.916 2.775 14.2577 2.825C17.5077 3.3 18.9577 5.25833 18.9577 9.16666V12.5C18.9577 17.025 17.0243 18.9583 12.4993 18.9583Z" fill="#A0A0A0"/>
</svg>
