<svg width="21" height="20" viewBox="0 0 21 20" fill="none" xmlns="http://www.w3.org/2000/svg">
<path d="M14.5664 18.9583H6.23307C3.19141 18.9583 1.44141 17.2083 1.44141 14.1667V9.99999C1.44141 6.95833 3.19141 5.20833 6.23307 5.20833H14.5664C17.6081 5.20833 19.3581 6.95833 19.3581 9.99999V14.1667C19.3581 17.2083 17.6081 18.9583 14.5664 18.9583ZM6.23307 6.45833C3.84974 6.45833 2.69141 7.61666 2.69141 9.99999V14.1667C2.69141 16.55 3.84974 17.7083 6.23307 17.7083H14.5664C16.9497 17.7083 18.1081 16.55 18.1081 14.1667V9.99999C18.1081 7.61666 16.9497 6.45833 14.5664 6.45833H6.23307Z" fill="#A0A0A0"/>
<path d="M15.4004 4.375H5.40039C5.05872 4.375 4.77539 4.09167 4.77539 3.75C4.77539 3.40833 5.05872 3.125 5.40039 3.125H15.4004C15.7421 3.125 16.0254 3.40833 16.0254 3.75C16.0254 4.09167 15.7421 4.375 15.4004 4.375Z" fill="#A0A0A0"/>
<path d="M12.9004 2.29167H7.90039C7.55872 2.29167 7.27539 2.00834 7.27539 1.66667C7.27539 1.32501 7.55872 1.04167 7.90039 1.04167H12.9004C13.2421 1.04167 13.5254 1.32501 13.5254 1.66667C13.5254 2.00834 13.2421 2.29167 12.9004 2.29167Z" fill="#A0A0A0"/>
<path d="M7.80963 16.55C6.83463 16.55 6.04297 15.7583 6.04297 14.7833C6.04297 13.8083 6.83463 13.0167 7.80963 13.0167C8.78463 13.0167 9.57629 13.8083 9.57629 14.7833C9.57629 15.7583 8.78463 16.55 7.80963 16.55ZM7.80963 14.2667C7.5263 14.2667 7.29297 14.5 7.29297 14.7833C7.29297 15.0667 7.5263 15.3 7.80963 15.3C8.09296 15.3 8.32629 15.0667 8.32629 14.7833C8.32629 14.5 8.09296 14.2667 7.80963 14.2667Z" fill="#A0A0A0"/>
<path d="M8.94922 15.4083C8.60755 15.4083 8.32422 15.125 8.32422 14.7833V10.1917C8.32422 9.45833 8.78256 8.86665 9.48256 8.67499L11.7659 8.04999C12.4909 7.84999 12.9492 8.04169 13.1992 8.24169C13.4492 8.43335 13.7492 8.82499 13.7492 9.56666V14.025C13.7492 14.3667 13.4659 14.65 13.1242 14.65C12.7826 14.65 12.4992 14.3667 12.4992 14.025V9.56666C12.4992 9.33333 12.4492 9.24169 12.4325 9.23336C12.4159 9.22502 12.3159 9.19166 12.0826 9.25833L9.80753 9.88333C9.59919 9.94166 9.56588 10.0833 9.56588 10.2V14.7917C9.57421 15.125 9.29089 15.4083 8.94922 15.4083Z" fill="#A0A0A0"/>
<path d="M11.9913 15.7916C11.0163 15.7916 10.2246 15 10.2246 14.025C10.2246 13.05 11.0163 12.2583 11.9913 12.2583C12.9663 12.2583 13.758 13.05 13.758 14.025C13.758 15 12.9663 15.7916 11.9913 15.7916ZM11.9913 13.5083C11.7079 13.5083 11.4746 13.7416 11.4746 14.025C11.4746 14.3083 11.7079 14.5416 11.9913 14.5416C12.2746 14.5416 12.508 14.3083 12.508 14.025C12.508 13.7416 12.2746 13.5083 11.9913 13.5083Z" fill="#A0A0A0"/>
<path d="M8.95041 12.15C8.67541 12.15 8.42539 11.9667 8.35039 11.6917C8.25872 11.3583 8.45875 11.0166 8.79208 10.925L12.9671 9.78331C13.3088 9.69164 13.6421 9.89167 13.7337 10.225C13.8254 10.5583 13.6254 10.9 13.292 10.9917L9.11709 12.1333C9.05876 12.1416 9.00875 12.15 8.95041 12.15Z" fill="#A0A0A0"/>
</svg>
