<svg width="20" height="20" viewBox="0 0 20 20" fill="none" xmlns="http://www.w3.org/2000/svg">
<path d="M10 8.76667C9.65833 8.76667 9.375 8.48333 9.375 8.14167V5.36667C9.375 5.025 9.65833 4.74167 10 4.74167C10.3417 4.74167 10.625 5.025 10.625 5.36667V8.14167C10.625 8.49167 10.3417 8.76667 10 8.76667Z" fill="#A0A0A0"/>
<path d="M10.0167 16.9583C7.86672 16.9583 5.72505 16.6167 3.68339 15.9333C2.92505 15.6833 2.35005 15.1417 2.10005 14.4583C1.85005 13.775 1.93339 12.9917 2.34172 12.3083L3.40005 10.5417C3.63339 10.15 3.84172 9.41667 3.84172 8.95833V7.20833C3.84172 3.8 6.60839 1.03333 10.0167 1.03333C13.4251 1.03333 16.1917 3.8 16.1917 7.20833V8.95833C16.1917 9.40833 16.4001 10.15 16.6334 10.5417L17.6917 12.3083C18.0834 12.9583 18.1501 13.7333 17.8917 14.4417C17.6334 15.15 17.0667 15.6917 16.3501 15.9333C14.3084 16.625 12.1667 16.9583 10.0167 16.9583ZM10.0167 2.29167C7.30005 2.29167 5.09172 4.5 5.09172 7.21667V8.96667C5.09172 9.64167 4.82505 10.6167 4.47505 11.1917L3.41672 12.9667C3.20005 13.325 3.15005 13.7083 3.27505 14.0417C3.40005 14.375 3.68339 14.625 4.08339 14.7583C7.91672 16.0333 12.1334 16.0333 15.9667 14.7583C16.3251 14.6417 16.6001 14.375 16.7251 14.025C16.8584 13.675 16.8167 13.2917 16.6251 12.9667L15.5667 11.2C15.2167 10.625 14.9501 9.65 14.9501 8.975V7.225C14.9417 4.5 12.7334 2.29167 10.0167 2.29167Z" fill="#A0A0A0"/>
<path d="M9.99961 19.0833C9.10794 19.0833 8.23294 18.7167 7.59961 18.0833C6.96628 17.45 6.59961 16.575 6.59961 15.6833H7.84961C7.84961 16.25 8.08294 16.8 8.48294 17.2C8.88294 17.6 9.43294 17.8333 9.99961 17.8333C11.1829 17.8333 12.1496 16.8667 12.1496 15.6833H13.3996C13.3996 17.5583 11.8746 19.0833 9.99961 19.0833Z" fill="#A0A0A0"/>
</svg>
