<svg width="21" height="20" viewBox="0 0 21 20" fill="none" xmlns="http://www.w3.org/2000/svg">
<path d="M10.3835 18.125C5.67513 18.125 1.8418 14.2917 1.8418 9.58334C1.8418 4.87501 5.67513 1.04167 10.3835 1.04167C15.0918 1.04167 18.9251 4.87501 18.9251 9.58334C18.9251 14.2917 15.0918 18.125 10.3835 18.125ZM10.3835 2.29167C6.35846 2.29167 3.0918 5.56667 3.0918 9.58334C3.0918 13.6 6.35846 16.875 10.3835 16.875C14.4085 16.875 17.6751 13.6 17.6751 9.58334C17.6751 5.56667 14.4085 2.29167 10.3835 2.29167Z" fill="#A0A0A0"/>
<path d="M19.1333 18.9583C18.975 18.9583 18.8167 18.9 18.6917 18.775L17.025 17.1083C16.7833 16.8667 16.7833 16.4667 17.025 16.225C17.2667 15.9833 17.6667 15.9833 17.9083 16.225L19.575 17.8917C19.8167 18.1333 19.8167 18.5333 19.575 18.775C19.45 18.9 19.2917 18.9583 19.1333 18.9583Z" fill="#A0A0A0"/>
</svg>
